<svg xmlns="http://www.w3.org/2000/svg" xmlns:svg="http://www.w3.org/2000/svg" xmlns:xlink="http://www.w3.org/1999/xlink" id="svg2816" width="48" height="48" version="1.1"><defs id="defs2818"><linearGradient id="linearGradient3656"><stop id="stop3658" offset="0" stop-color="#000" stop-opacity="1"/><stop id="stop3660" offset="1" stop-color="#000" stop-opacity="0"/></linearGradient><linearGradient id="linearGradient3632"><stop id="stop3634" offset="0" stop-color="#fff" stop-opacity=".549"/><stop id="stop3636" offset="1" stop-color="#fff" stop-opacity="0"/></linearGradient><linearGradient id="linearGradient3622"><stop id="stop3624" offset="0" stop-color="#fff" stop-opacity="1"/><stop id="stop3626" offset="1" stop-color="#d3d7cf" stop-opacity="1"/></linearGradient><linearGradient id="linearGradient3600"><stop id="stop3602" offset="0" stop-color="#8ae234" stop-opacity="1"/><stop id="stop3604" offset="1" stop-color="#4e9a06" stop-opacity="1"/></linearGradient><linearGradient id="linearGradient3606" x1="20.256" x2="20.256" y1="2.547" y2="46.882" gradientUnits="userSpaceOnUse" xlink:href="#linearGradient3600"/><linearGradient id="linearGradient3628" x1="21.235" x2="21.235" y1="7.948" y2="40.192" gradientUnits="userSpaceOnUse" xlink:href="#linearGradient3622"/><linearGradient id="linearGradient3638" x1="6.483" x2="25.364" y1="4.543" y2="35.228" gradientTransform="translate(0,-0.35355339)" gradientUnits="userSpaceOnUse" xlink:href="#linearGradient3632"/><linearGradient id="linearGradient3606-9" x1="20.256" x2="20.256" y1="2.547" y2="46.882" gradientUnits="userSpaceOnUse" xlink:href="#linearGradient3600-5"/><linearGradient id="linearGradient3600-5"><stop id="stop3602-7" offset="0" stop-color="#8ae234" stop-opacity="1"/><stop id="stop3604-2" offset="1" stop-color="#4e9a06" stop-opacity="1"/></linearGradient><filter id="filter3731"><feGaussianBlur id="feGaussianBlur3733" stdDeviation=".827"/></filter></defs><metadata id="metadata2821"/><g id="layer1"><path id="path3598-4" fill="#000" fill-opacity=".287" stroke="none" d="M 39.454098,24.714287 20.256381,35.798093 1.0586662,46.8819 l 0,-22.167614 0,-22.1676119 19.1977168,11.0838069 19.197715,11.083806 z" filter="url(#filter3731)" transform="matrix(1.0537808,0,0,1.0537808,3.6163385,-1.9600717)"/><path id="path3598" fill="url(#linearGradient3606)" fill-opacity="1" stroke="#366a04" stroke-dasharray="none" stroke-linejoin="round" stroke-miterlimit="4" stroke-opacity="1" stroke-width="1.055" d="M 39.454098,24.714287 20.256381,35.798093 1.0586662,46.8819 l 0,-22.167614 0,-22.1676119 19.1977168,11.0838069 19.197715,11.083806 z" transform="matrix(0.94788634,0,0,0.94788634,5.0257749,0.56128794)"/><path id="path3620" fill="url(#linearGradient3628)" fill-opacity="1" stroke="none" stroke-linecap="butt" stroke-linejoin="miter" stroke-opacity="1" stroke-width="1" d="m 6.5304575,9.646791 8.7347075,20.091724 4.674611,-18.160553 4.525987,2.612472 3.885316,12.559503 4.403755,-7.765833 1.744319,1.009296 -2.127799,9.211229 -6.155446,3.554753 -4.028978,-9.439016 -2.255629,13.086534 -5.852703,3.373025 -7.5584205,-9.989634 0.01028,-20.1435 z"/><path id="path3630" fill="none" stroke="url(#linearGradient3638)" stroke-linecap="butt" stroke-linejoin="miter" stroke-opacity="1" stroke-width="1" d="m 6.9826793,42.785087 0,-38.0953773 32.9068657,18.9987873"/><path id="path3739" fill="none" stroke="#000" stroke-linecap="butt" stroke-linejoin="miter" stroke-opacity=".157" stroke-width="1" d="M 6.6184028,8.6135689 15.026019,28.134068 19.45616,10.995613"/><path id="path3739-5" fill="none" stroke="#000" stroke-linecap="butt" stroke-linejoin="miter" stroke-opacity=".157" stroke-width="1" d="m 25.081121,14.552251 3.345117,11.020499 3.93014,-6.825955"/><path id="path3772" fill="none" stroke="#000" stroke-linecap="butt" stroke-linejoin="miter" stroke-opacity=".157" stroke-width="1" d="m 6.6291261,30.85266 7.0710679,9.280777"/><path id="path3772-6" fill="none" stroke="#000" stroke-linecap="butt" stroke-linejoin="miter" stroke-opacity=".157" stroke-width="1" d="m 34.736621,20.290253 -2.032932,8.794642"/><path id="path3796" fill="none" stroke="#000" stroke-linecap="butt" stroke-linejoin="miter" stroke-opacity=".157" stroke-width="1" d="m 20.594485,35.934991 1.811961,-10.650796 3.270369,7.778174"/></g></svg>